<svg width="27" height="24" viewBox="0 0 27 24" fill="none" xmlns="http://www.w3.org/2000/svg">
<path d="M0.93934 10.9393C0.353553 11.5251 0.353553 12.4749 0.93934 13.0607L10.4853 22.6066C11.0711 23.1924 12.0208 23.1924 12.6066 22.6066C13.1924 22.0208 13.1924 21.0711 12.6066 20.4853L4.12132 12L12.6066 3.51472C13.1924 2.92893 13.1924 1.97919 12.6066 1.3934C12.0208 0.807611 11.0711 0.807611 10.4853 1.3934L0.93934 10.9393ZM2 12C2 13.5 2.00011 13.5 2.00033 13.5C2.00054 13.5 2.00087 13.5 2.0013 13.5C2.00173 13.5 2.00227 13.5 2.00292 13.5C2.00357 13.5 2.00433 13.5 2.00519 13.5C2.00605 13.5 2.00702 13.5 2.0081 13.5C2.00917 13.5 2.01035 13.5 2.01164 13.5C2.01293 13.5 2.01432 13.5 2.01582 13.5C2.01732 13.5 2.01893 13.5 2.02064 13.5C2.02235 13.5 2.02416 13.5 2.02608 13.5C2.028 13.5 2.03002 13.5 2.03215 13.5C2.03428 13.5 2.03651 13.5 2.03885 13.5C2.04118 13.5 2.04362 13.5 2.04616 13.5C2.0487 13.5 2.05135 13.5 2.0541 13.5C2.05685 13.5 2.0597 13.5 2.06265 13.5C2.0656 13.5 2.06866 13.5 2.07181 13.5C2.07497 13.5 2.07823 13.5 2.08159 13.5C2.08495 13.5 2.08841 13.5 2.09197 13.5C2.09553 13.5 2.0992 13.5 2.10296 13.5C2.10672 13.5 2.11059 13.5 2.11455 13.5C2.11851 13.5 2.12257 13.5 2.12674 13.5C2.1309 13.5 2.13516 13.5 2.13952 13.5C2.14388 13.5 2.14834 13.5 2.1529 13.5C2.15746 13.5 2.16212 13.5 2.16687 13.5C2.17163 13.5 2.17648 13.5 2.18143 13.5C2.18638 13.5 2.19143 13.5 2.19657 13.5C2.20172 13.5 2.20696 13.5 2.2123 13.5C2.21764 13.5 2.22307 13.5 2.2286 13.5C2.23413 13.5 2.23976 13.5 2.24548 13.5C2.25121 13.5 2.25703 13.5 2.26294 13.5C2.26885 13.5 2.27486 13.5 2.28097 13.5C2.28707 13.5 2.29327 13.5 2.29956 13.5C2.30586 13.5 2.31224 13.5 2.31873 13.5C2.32521 13.5 2.33178 13.5 2.33845 13.5C2.34512 13.5 2.35188 13.5 2.35873 13.5C2.36559 13.5 2.37254 13.5 2.37958 13.5C2.38662 13.5 2.39375 13.5 2.40097 13.5C2.4082 13.5 2.41551 13.5 2.42292 13.5C2.43033 13.5 2.43783 13.5 2.44542 13.5C2.45301 13.5 2.46069 13.5 2.46846 13.5C2.47623 13.5 2.4841 13.5 2.49205 13.5C2.5 13.5 2.50804 13.5 2.51618 13.5C2.52431 13.5 2.53253 13.5 2.54084 13.5C2.54915 13.5 2.55755 13.5 2.56604 13.5C2.57453 13.5 2.58311 13.5 2.59177 13.5C2.60044 13.5 2.60919 13.5 2.61803 13.5C2.62688 13.5 2.63581 13.5 2.64482 13.5C2.65384 13.5 2.66294 13.5 2.67213 13.5C2.68132 13.5 2.6906 13.5 2.69997 13.5C2.70933 13.5 2.71878 13.5 2.72832 13.5C2.73785 13.5 2.74748 13.5 2.75718 13.5C2.76689 13.5 2.77668 13.5 2.78656 13.5C2.79644 13.5 2.8064 13.5 2.81645 13.5C2.8265 13.5 2.83663 13.5 2.84685 13.5C2.85706 13.5 2.86736 13.5 2.87775 13.5C2.88813 13.5 2.8986 13.5 2.90915 13.5C2.9197 13.5 2.93033 13.5 2.94105 13.5C2.95177 13.5 2.96256 13.5 2.97345 13.5C2.98433 13.5 2.99529 13.5 3.00633 13.5C3.01738 13.5 3.02851 13.5 3.03971 13.5C3.05092 13.5 3.06221 13.5 3.07358 13.5C3.08495 13.5 3.0964 13.5 3.10793 13.5C3.11946 13.5 3.13107 13.5 3.14277 13.5C3.15446 13.5 3.16623 13.5 3.17808 13.5C3.18993 13.5 3.20186 13.5 3.21387 13.5C3.22588 13.5 3.23796 13.5 3.25013 13.5C3.2623 13.5 3.27454 13.5 3.28686 13.5C3.29918 13.5 3.31159 13.5 3.32406 13.5C3.33654 13.5 3.3491 13.5 3.36173 13.5C3.37436 13.5 3.38707 13.5 3.39986 13.5C3.41264 13.5 3.42551 13.5 3.43845 13.5C3.45138 13.5 3.4644 13.5 3.47749 13.5C3.49058 13.5 3.50375 13.5 3.51699 13.5C3.53023 13.5 3.54355 13.5 3.55694 13.5C3.57033 13.5 3.5838 13.5 3.59734 13.5C3.61088 13.5 3.62449 13.5 3.63818 13.5C3.65187 13.5 3.66563 13.5 3.67947 13.5C3.6933 13.5 3.70721 13.5 3.72119 13.5C3.73517 13.5 3.74923 13.5 3.76336 13.5C3.77748 13.5 3.79168 13.5 3.80595 13.5C3.82023 13.5 3.83457 13.5 3.84898 13.5C3.8634 13.5 3.87788 13.5 3.89244 13.5C3.907 13.5 3.92163 13.5 3.93633 13.5C3.95103 13.5 3.96579 13.5 3.98063 13.5C3.99547 13.5 4.01038 13.5 4.02536 13.5C4.04034 13.5 4.05539 13.5 4.07051 13.5C4.08563 13.5 4.10081 13.5 4.11607 13.5C4.13132 13.5 4.14665 13.5 4.16204 13.5C4.17743 13.5 4.19289 13.5 4.20842 13.5C4.22395 13.5 4.23955 13.5 4.25521 13.5C4.27087 13.5 4.2866 13.5 4.3024 13.5C4.3182 13.5 4.33406 13.5 4.34999 13.5C4.36592 13.5 4.38192 13.5 4.39798 13.5C4.41405 13.5 4.43018 13.5 4.44637 13.5C4.46256 13.5 4.47882 13.5 4.49515 13.5C4.51147 13.5 4.52786 13.5 4.54432 13.5C4.56077 13.5 4.57729 13.5 4.59387 13.5C4.61045 13.5 4.6271 13.5 4.64381 13.5C4.66052 13.5 4.67729 13.5 4.69413 13.5C4.71097 13.5 4.72787 13.5 4.74483 13.5C4.76179 13.5 4.77882 13.5 4.7959 13.5C4.81299 13.5 4.83014 13.5 4.84735 13.5C4.86456 13.5 4.88184 13.5 4.89917 13.5C4.9165 13.5 4.9339 13.5 4.95135 13.5C4.96881 13.5 4.98633 13.5 5.0039 13.5C5.02148 13.5 5.03912 13.5 5.05682 13.5C5.07451 13.5 5.09227 13.5 5.11009 13.5C5.1279 13.5 5.14578 13.5 5.16371 13.5C5.18165 13.5 5.19964 13.5 5.21769 13.5C5.37096 13.5 5.17297 13.5 5.3267 13.5C5.47536 13.5 5.28797 13.5 5.43709 13.5C5.58124 13.5 5.40424 13.5 5.54883 13.5C5.68855 13.5 5.52176 13.5 5.66191 13.5C5.79728 13.5 5.64051 13.5 5.77631 13.5C5.90741 13.5 5.76047 13.5 5.89199 13.5C6.01891 13.5 5.88161 13.5 6.00894 13.5C6.13175 13.5 6.00392 13.5 6.12714 13.5C6.24593 13.5 6.12738 13.5 6.24656 13.5C6.3614 13.5 6.25195 13.5 6.36719 13.5C6.47816 13.5 6.37763 13.5 6.48899 13.5C6.59617 13.5 6.50439 13.5 6.61195 13.5C6.71541 13.5 6.6322 13.5 6.73604 13.5C6.83587 13.5 6.76105 13.5 6.86124 13.5C7.0499 13.5 6.92481 13.5 7.11489 13.5C7.28992 13.5 7.19634 13.5 7.37273 13.5C7.5347 13.5 7.47128 13.5 7.63456 13.5C7.78405 13.5 7.74947 13.5 7.90021 13.5C8.16264 13.5 8.17521 13.5 8.44226 13.5C8.83642 13.5 9.15458 13.5 9.56435 13.5C9.64157 13.5 9.77369 13.5 9.85174 13.5C9.88731 13.5 9.96057 13.5 9.99634 13.5C10.0205 13.5 10.0447 13.5 10.0689 13.5C10.0931 13.5 10.1173 13.5 10.1415 13.5C10.2555 13.5 10.6109 13.5 10.7275 13.5C10.8139 13.5 11.2324 13.5 11.321 13.5C11.3552 13.5 11.5853 13.5 11.62 13.5C11.6486 13.5 11.8914 13.5 11.9204 13.5C11.9437 13.5 12.1982 13.5 12.2219 13.5C12.2404 13.5 12.5056 13.5 12.5244 13.5C12.5383 13.5 12.8134 13.5 12.8276 13.5C12.8375 13.5 13.1214 13.5 13.1315 13.5C13.1376 13.5 13.4295 13.5 13.4357 13.5C13.4384 13.5 13.7375 13.5 13.7403 13.5C13.7404 13.5 13.8924 13.5 13.8926 13.5C13.9179 13.5 13.9433 13.5 13.9687 13.5C13.9941 13.5 14.0195 13.5 14.0448 13.5C14.0702 13.5 14.0956 13.5 14.121 13.5C14.1464 13.5 14.1717 13.5 14.1971 13.5C14.2225 13.5 14.2479 13.5 14.2732 13.5C14.2986 13.5 14.324 13.5 14.3493 13.5C14.3747 13.5 14.4 13.5 14.4254 13.5C14.4508 13.5 14.4761 13.5 14.5015 13.5C14.5268 13.5 14.5522 13.5 14.5775 13.5C14.6028 13.5 14.6282 13.5 14.6535 13.5C14.6788 13.5 14.7042 13.5 14.7295 13.5C14.7548 13.5 14.7801 13.5 14.8054 13.5C14.8307 13.5 14.856 13.5 14.8813 13.5C14.9066 13.5 14.9319 13.5 14.9572 13.5C14.9825 13.5 15.0078 13.5 15.033 13.5C15.0583 13.5 15.0836 13.5 15.1088 13.5C15.1341 13.5 15.1593 13.5 15.1846 13.5C15.2098 13.5 15.235 13.5 15.2603 13.5C15.2855 13.5 15.3107 13.5 15.3359 13.5C15.3611 13.5 15.3863 13.5 15.4115 13.5C15.4367 13.5 15.4619 13.5 15.487 13.5C15.5122 13.5 15.5374 13.5 15.5625 13.5C15.5876 13.5 15.6128 13.5 15.6379 13.5C15.663 13.5 15.6881 13.5 15.7132 13.5C15.7384 13.5 15.7634 13.5 15.7885 13.5C15.8136 13.5 15.8387 13.5 15.8637 13.5C15.8888 13.5 15.9138 13.5 15.9389 13.5C15.9639 13.5 15.9889 13.5 16.0139 13.5C16.0389 13.5 16.0639 13.5 16.0889 13.5C16.1139 13.5 16.1388 13.5 16.1638 13.5C16.1887 13.5 16.2136 13.5 16.2386 13.5C16.2635 13.5 16.2884 13.5 16.3133 13.5C16.3382 13.5 16.363 13.5 16.3879 13.5C16.4128 13.5 16.4376 13.5 16.4624 13.5C16.4873 13.5 16.5121 13.5 16.5369 13.5C16.5617 13.5 16.5864 13.5 16.6112 13.5C16.636 13.5 16.6607 13.5 16.6854 13.5C16.7102 13.5 16.7349 13.5 16.7596 13.5C16.7843 13.5 16.8089 13.5 16.8336 13.5C16.8582 13.5 16.8829 13.5 16.9075 13.5C16.9321 13.5 16.9567 13.5 16.9813 13.5C17.0059 13.5 17.0304 13.5 17.055 13.5C17.0795 13.5 17.104 13.5 17.1285 13.5C17.153 13.5 17.1775 13.5 17.202 13.5C17.2264 13.5 17.2509 13.5 17.2753 13.5C17.2997 13.5 17.3241 13.5 17.3485 13.5C17.3729 13.5 17.3972 13.5 17.4215 13.5C17.4459 13.5 17.4702 13.5 17.4945 13.5C17.5188 13.5 17.543 13.5 17.5673 13.5C17.5915 13.5 17.6157 13.5 17.6399 13.5C17.6641 13.5 17.6883 13.5 17.7124 13.5C17.7366 13.5 17.7607 13.5 17.7848 13.5C17.8089 13.5 17.833 13.5 17.857 13.5C17.8811 13.5 17.9051 13.5 17.9291 13.5C17.9531 13.5 17.977 13.5 18.001 13.5C18.0249 13.5 18.0489 13.5 18.0728 13.5C18.0967 13.5 18.1205 13.5 18.1444 13.5C18.1682 13.5 18.192 13.5 18.2158 13.5C18.2396 13.5 18.2634 13.5 18.2871 13.5C18.3108 13.5 18.3345 13.5 18.3582 13.5C18.3819 13.5 18.4055 13.5 18.4291 13.5C18.4528 13.5 18.4764 13.5 18.4999 13.5C18.5235 13.5 18.547 13.5 18.5705 13.5C18.594 13.5 18.6175 13.5 18.6409 13.5C18.6644 13.5 18.6878 13.5 18.7112 13.5C18.7346 13.5 18.7579 13.5 18.7812 13.5C18.8046 13.5 18.8279 13.5 18.8511 13.5C18.8744 13.5 18.8976 13.5 18.9208 13.5C18.944 13.5 18.9672 13.5 18.9903 13.5C19.0134 13.5 19.0365 13.5 19.0596 13.5C19.0827 13.5 19.1057 13.5 19.1287 13.5C19.1517 13.5 19.1747 13.5 19.1976 13.5C19.2205 13.5 19.2434 13.5 19.2663 13.5C19.2892 13.5 19.312 13.5 19.3348 13.5C19.3576 13.5 19.3803 13.5 19.4031 13.5C19.4258 13.5 19.4485 13.5 19.4711 13.5C19.4938 13.5 19.5164 13.5 19.539 13.5C19.5616 13.5 19.5841 13.5 19.6066 13.5C19.6291 13.5 19.6516 13.5 19.6741 13.5C19.6965 13.5 19.7189 13.5 19.7413 13.5C19.7636 13.5 19.786 13.5 19.8082 13.5C19.8305 13.5 19.8528 13.5 19.875 13.5C19.8972 13.5 19.9194 13.5 19.9415 13.5C19.9636 13.5 19.9857 13.5 20.0078 13.5C20.0298 13.5 20.0519 13.5 20.0738 13.5C20.0958 13.5 20.1178 13.5 20.1396 13.5C20.1615 13.5 20.1834 13.5 20.2052 13.5C20.227 13.5 20.2488 13.5 20.2705 13.5C20.2923 13.5 20.314 13.5 20.3356 13.5C20.3573 13.5 20.3789 13.5 20.4004 13.5C20.422 13.5 20.4435 13.5 20.465 13.5C20.4865 13.5 20.5079 13.5 20.5293 13.5C20.5507 13.5 20.5721 13.5 20.5934 13.5C20.6147 13.5 20.636 13.5 20.6572 13.5C20.6784 13.5 20.6996 13.5 20.7207 13.5C20.7419 13.5 20.7629 13.5 20.784 13.5C20.805 13.5 20.826 13.5 20.847 13.5C20.8679 13.5 20.8888 13.5 20.9097 13.5C20.9306 13.5 20.9514 13.5 20.9722 13.5C20.9929 13.5 21.0136 13.5 21.0343 13.5C21.055 13.5 21.0756 13.5 21.0962 13.5C21.1168 13.5 21.1373 13.5 21.1578 13.5C21.1783 13.5 21.1987 13.5 21.2191 13.5C21.2395 13.5 21.2599 13.5 21.2802 13.5C21.3005 13.5 21.3207 13.5 21.3409 13.5C21.3611 13.5 21.3813 13.5 21.4014 13.5C21.4215 13.5 21.4415 13.5 21.4615 13.5C21.4815 13.5 21.5014 13.5 21.5213 13.5C21.5219 13.5 21.64 13.5 21.6401 13.5C21.6429 13.5 21.8729 13.5 21.874 13.5C21.8783 13.5 22.1 13.5 22.1027 13.5C22.1087 13.5 22.3218 13.5 22.3261 13.5C22.3337 13.5 22.5382 13.5 22.544 13.5C22.5532 13.5 22.749 13.5 22.7563 13.5C22.7671 13.5 22.9539 13.5 22.9627 13.5C22.9909 13.5 23.3375 13.5 23.3574 13.5C23.3725 13.5 23.5323 13.5 23.5452 13.5C23.5606 13.5 23.576 13.5 23.5912 13.5C23.6064 13.5 23.6216 13.5 23.6367 13.5C23.6518 13.5 23.6669 13.5 23.6819 13.5C23.6968 13.5 23.7117 13.5 23.7266 13.5C23.7651 13.5 24.0395 13.5 24.0688 13.5C24.0825 13.5 24.0961 13.5 24.1096 13.5C24.1232 13.5 24.1366 13.5 24.15 13.5C24.1596 13.5 24.2205 13.5 24.2294 13.5C24.2497 13.5 24.3649 13.5 24.3827 13.5C24.4862 13.5 24.8579 13.5 24.9198 13.5C25.1758 13.5 25.5242 13.5 25.5908 13.5C25.619 13.5 25.6511 13.5 25.6663 13.5C25.6705 13.5 25.6755 13.5 25.6789 13.5C25.6809 13.5 25.6827 13.5 25.6844 13.5C25.6861 13.5 25.6876 13.5 25.6891 13.5C25.6949 13.5 25.6995 13.5 25.7019 13.5C25.7031 13.5 25.704 13.5 25.7044 13.5C25.7046 13.5 27.2047 12 25.7047 10.5C25.7047 10.5 25.7046 10.5 25.7043 10.5C25.7034 10.5 25.7008 10.5 25.6963 10.5C25.6862 10.5 25.6726 10.5 25.6481 10.5C25.5871 10.5 25.5396 10.5 25.4179 10.5C25.4112 10.5 25.4044 10.5 25.3974 10.5C25.3905 10.5 25.3834 10.5 25.3762 10.5C25.3568 10.5 25.3519 10.5 25.3315 10.5C25.2887 10.5 25.28 10.5 25.2331 10.5C25.1302 10.5 25.1193 10.5 25 10.5V13.5C25.1193 13.5 25.1302 13.5 25.2331 13.5C25.28 13.5 25.2887 13.5 25.3315 13.5C25.3519 13.5 25.3568 13.5 25.3762 13.5C25.3834 13.5 25.3905 13.5 25.3974 13.5C25.4044 13.5 25.4112 13.5 25.4179 13.5C25.5396 13.5 25.5871 13.5 25.6481 13.5C25.6726 13.5 25.6862 13.5 25.6963 13.5C25.7008 13.5 25.7034 13.5 25.7043 13.5C25.7046 13.5 25.7047 13.5 25.7047 13.5C24.2047 12 25.7046 10.5 25.7044 10.5C25.704 10.5 25.7031 10.5 25.7019 10.5C25.6995 10.5 25.6949 10.5 25.6891 10.5C25.6876 10.5 25.6861 10.5 25.6844 10.5C25.6827 10.5 25.6809 10.5 25.6789 10.5C25.6755 10.5 25.6705 10.5 25.6663 10.5C25.6511 10.5 25.619 10.5 25.5908 10.5C25.5242 10.5 25.1758 10.5 24.9198 10.5C24.8579 10.5 24.4862 10.5 24.3827 10.5C24.3649 10.5 24.2497 10.5 24.2294 10.5C24.2205 10.5 24.1596 10.5 24.15 10.5C24.1366 10.5 24.1232 10.5 24.1096 10.5C24.0961 10.5 24.0825 10.5 24.0688 10.5C24.0395 10.5 23.7651 10.5 23.7266 10.5C23.7117 10.5 23.6968 10.5 23.6819 10.5C23.6669 10.5 23.6518 10.5 23.6367 10.5C23.6216 10.5 23.6064 10.5 23.5912 10.5C23.576 10.5 23.5606 10.5 23.5452 10.5C23.5323 10.5 23.3725 10.5 23.3574 10.5C23.3375 10.5 22.9909 10.5 22.9627 10.5C22.9539 10.5 22.7671 10.5 22.7563 10.5C22.749 10.5 22.5532 10.5 22.544 10.5C22.5382 10.5 22.3337 10.5 22.3261 10.5C22.3218 10.5 22.1087 10.5 22.1027 10.5C22.1 10.5 21.8783 10.5 21.874 10.5C21.8729 10.5 21.6429 10.5 21.6401 10.5C21.64 10.5 21.5219 10.5 21.5213 10.5C21.5014 10.5 21.4815 10.5 21.4615 10.5C21.4415 10.5 21.4215 10.5 21.4014 10.5C21.3813 10.5 21.3611 10.5 21.3409 10.5C21.3207 10.5 21.3005 10.5 21.2802 10.5C21.2599 10.5 21.2395 10.5 21.2191 10.5C21.1987 10.5 21.1783 10.5 21.1578 10.5C21.1373 10.5 21.1168 10.5 21.0962 10.5C21.0756 10.5 21.055 10.5 21.0343 10.5C21.0136 10.5 20.9929 10.5 20.9722 10.5C20.9514 10.5 20.9306 10.5 20.9097 10.5C20.8888 10.5 20.8679 10.5 20.847 10.5C20.826 10.5 20.805 10.5 20.784 10.5C20.7629 10.5 20.7419 10.5 20.7207 10.5C20.6996 10.5 20.6784 10.5 20.6572 10.5C20.636 10.5 20.6147 10.5 20.5934 10.5C20.5721 10.5 20.5507 10.5 20.5293 10.5C20.5079 10.5 20.4865 10.5 20.465 10.5C20.4435 10.5 20.422 10.5 20.4004 10.5C20.3789 10.5 20.3573 10.5 20.3356 10.5C20.314 10.5 20.2923 10.5 20.2705 10.5C20.2488 10.5 20.227 10.5 20.2052 10.5C20.1834 10.5 20.1615 10.5 20.1396 10.5C20.1178 10.5 20.0958 10.5 20.0738 10.5C20.0519 10.5 20.0298 10.5 20.0078 10.5C19.9857 10.5 19.9636 10.5 19.9415 10.5C19.9194 10.5 19.8972 10.5 19.875 10.5C19.8528 10.5 19.8305 10.5 19.8082 10.5C19.786 10.5 19.7636 10.5 19.7413 10.5C19.7189 10.5 19.6965 10.5 19.6741 10.5C19.6516 10.5 19.6291 10.5 19.6066 10.5C19.5841 10.5 19.5616 10.5 19.539 10.5C19.5164 10.5 19.4938 10.5 19.4711 10.5C19.4485 10.5 19.4258 10.5 19.4031 10.5C19.3803 10.5 19.3576 10.5 19.3348 10.5C19.312 10.5 19.2892 10.5 19.2663 10.5C19.2434 10.5 19.2205 10.5 19.1976 10.5C19.1747 10.5 19.1517 10.5 19.1287 10.5C19.1057 10.5 19.0827 10.5 19.0596 10.5C19.0365 10.5 19.0134 10.5 18.9903 10.5C18.9672 10.5 18.944 10.5 18.9208 10.5C18.8976 10.5 18.8744 10.5 18.8511 10.5C18.8279 10.5 18.8046 10.5 18.7812 10.5C18.7579 10.5 18.7346 10.5 18.7112 10.5C18.6878 10.5 18.6644 10.5 18.6409 10.5C18.6175 10.5 18.594 10.5 18.5705 10.5C18.547 10.5 18.5235 10.5 18.4999 10.5C18.4764 10.5 18.4528 10.5 18.4291 10.5C18.4055 10.5 18.3819 10.5 18.3582 10.5C18.3345 10.5 18.3108 10.5 18.2871 10.5C18.2634 10.5 18.2396 10.5 18.2158 10.5C18.192 10.5 18.1682 10.5 18.1444 10.5C18.1205 10.5 18.0967 10.5 18.0728 10.5C18.0489 10.5 18.0249 10.5 18.001 10.5C17.977 10.5 17.9531 10.5 17.9291 10.5C17.9051 10.5 17.8811 10.5 17.857 10.5C17.833 10.5 17.8089 10.5 17.7848 10.5C17.7607 10.5 17.7366 10.5 17.7124 10.5C17.6883 10.5 17.6641 10.5 17.6399 10.5C17.6157 10.5 17.5915 10.5 17.5673 10.5C17.543 10.5 17.5188 10.5 17.4945 10.5C17.4702 10.5 17.4459 10.5 17.4215 10.5C17.3972 10.5 17.3729 10.5 17.3485 10.5C17.3241 10.5 17.2997 10.5 17.2753 10.5C17.2509 10.5 17.2264 10.5 17.202 10.5C17.1775 10.5 17.153 10.5 17.1285 10.5C17.104 10.5 17.0795 10.5 17.055 10.5C17.0304 10.5 17.0059 10.5 16.9813 10.5C16.9567 10.5 16.9321 10.5 16.9075 10.5C16.8829 10.5 16.8582 10.5 16.8336 10.5C16.8089 10.5 16.7843 10.5 16.7596 10.5C16.7349 10.5 16.7102 10.5 16.6854 10.5C16.6607 10.5 16.636 10.5 16.6112 10.5C16.5864 10.5 16.5617 10.5 16.5369 10.5C16.5121 10.5 16.4873 10.5 16.4624 10.5C16.4376 10.5 16.4128 10.5 16.3879 10.5C16.363 10.5 16.3382 10.5 16.3133 10.5C16.2884 10.5 16.2635 10.5 16.2386 10.5C16.2136 10.5 16.1887 10.5 16.1638 10.5C16.1388 10.5 16.1139 10.5 16.0889 10.5C16.0639 10.5 16.0389 10.5 16.0139 10.5C15.9889 10.5 15.9639 10.5 15.9389 10.5C15.9138 10.5 15.8888 10.5 15.8637 10.5C15.8387 10.5 15.8136 10.5 15.7885 10.5C15.7634 10.5 15.7384 10.5 15.7132 10.5C15.6881 10.5 15.663 10.5 15.6379 10.5C15.6128 10.5 15.5876 10.5 15.5625 10.5C15.5374 10.5 15.5122 10.5 15.487 10.5C15.4619 10.5 15.4367 10.5 15.4115 10.5C15.3863 10.5 15.3611 10.5 15.3359 10.5C15.3107 10.5 15.2855 10.5 15.2603 10.5C15.235 10.5 15.2098 10.5 15.1846 10.5C15.1593 10.5 15.1341 10.5 15.1088 10.5C15.0836 10.5 15.0583 10.5 15.033 10.5C15.0078 10.5 14.9825 10.5 14.9572 10.5C14.9319 10.5 14.9066 10.5 14.8813 10.5C14.856 10.5 14.8307 10.5 14.8054 10.5C14.7801 10.5 14.7548 10.5 14.7295 10.5C14.7042 10.5 14.6788 10.5 14.6535 10.5C14.6282 10.5 14.6028 10.5 14.5775 10.5C14.5522 10.5 14.5268 10.5 14.5015 10.5C14.4761 10.5 14.4508 10.5 14.4254 10.5C14.4 10.5 14.3747 10.5 14.3493 10.5C14.324 10.5 14.2986 10.5 14.2732 10.5C14.2479 10.5 14.2225 10.5 14.1971 10.5C14.1717 10.5 14.1464 10.5 14.121 10.5C14.0956 10.5 14.0702 10.5 14.0448 10.5C14.0195 10.5 13.9941 10.5 13.9687 10.5C13.9433 10.5 13.9179 10.5 13.8926 10.5C13.8924 10.5 13.7404 10.5 13.7403 10.5C13.7375 10.5 13.4384 10.5 13.4357 10.5C13.4295 10.5 13.1376 10.5 13.1315 10.5C13.1214 10.5 12.8375 10.5 12.8276 10.5C12.8134 10.5 12.5383 10.5 12.5244 10.5C12.5056 10.5 12.2404 10.5 12.2219 10.5C12.1982 10.5 11.9437 10.5 11.9204 10.5C11.8914 10.5 11.6486 10.5 11.62 10.5C11.5853 10.5 11.3552 10.5 11.321 10.5C11.2324 10.5 10.8139 10.5 10.7275 10.5C10.6109 10.5 10.2555 10.5 10.1415 10.5C10.1173 10.5 10.0931 10.5 10.0689 10.5C10.0447 10.5 10.0205 10.5 9.99634 10.5C9.96057 10.5 9.88731 10.5 9.85174 10.5C9.77369 10.5 9.64157 10.5 9.56435 10.5C9.15458 10.5 8.83642 10.5 8.44226 10.5C8.17521 10.5 8.16264 10.5 7.90021 10.5C7.74947 10.5 7.78405 10.5 7.63456 10.5C7.47128 10.5 7.5347 10.5 7.37273 10.5C7.19634 10.5 7.28992 10.5 7.11489 10.5C6.92481 10.5 7.0499 10.5 6.86124 10.5C6.76105 10.5 6.83587 10.5 6.73604 10.5C6.6322 10.5 6.71541 10.5 6.61195 10.5C6.50439 10.5 6.59617 10.5 6.48899 10.5C6.37763 10.5 6.47816 10.5 6.36719 10.5C6.25195 10.5 6.3614 10.5 6.24656 10.5C6.12738 10.5 6.24593 10.5 6.12714 10.5C6.00392 10.5 6.13175 10.5 6.00894 10.5C5.88161 10.5 6.01891 10.5 5.89199 10.5C5.76047 10.5 5.90741 10.5 5.77631 10.5C5.64051 10.5 5.79728 10.5 5.66191 10.5C5.52176 10.5 5.68855 10.5 5.54883 10.5C5.40424 10.5 5.58124 10.5 5.43709 10.5C5.28797 10.5 5.47536 10.5 5.3267 10.5C5.17297 10.5 5.37096 10.5 5.21769 10.5C5.19964 10.5 5.18165 10.5 5.16371 10.5C5.14578 10.5 5.1279 10.5 5.11009 10.5C5.09227 10.5 5.07451 10.5 5.05682 10.5C5.03912 10.5 5.02148 10.5 5.0039 10.5C4.98633 10.5 4.96881 10.5 4.95135 10.5C4.9339 10.5 4.9165 10.5 4.89917 10.5C4.88184 10.5 4.86456 10.5 4.84735 10.5C4.83014 10.5 4.81299 10.5 4.7959 10.5C4.77882 10.5 4.76179 10.5 4.74483 10.5C4.72787 10.5 4.71097 10.5 4.69413 10.5C4.67729 10.5 4.66052 10.5 4.64381 10.5C4.6271 10.5 4.61045 10.5 4.59387 10.5C4.57729 10.5 4.56077 10.5 4.54432 10.5C4.52786 10.5 4.51147 10.5 4.49515 10.5C4.47882 10.5 4.46256 10.5 4.44637 10.5C4.43018 10.5 4.41405 10.5 4.39798 10.5C4.38192 10.5 4.36592 10.5 4.34999 10.5C4.33406 10.5 4.3182 10.5 4.3024 10.5C4.2866 10.5 4.27087 10.5 4.25521 10.5C4.23955 10.5 4.22395 10.5 4.20842 10.5C4.19289 10.5 4.17743 10.5 4.16204 10.5C4.14665 10.5 4.13132 10.5 4.11607 10.5C4.10081 10.5 4.08563 10.5 4.07051 10.5C4.05539 10.5 4.04034 10.5 4.02536 10.5C4.01038 10.5 3.99547 10.5 3.98063 10.5C3.96579 10.5 3.95103 10.5 3.93633 10.5C3.92163 10.5 3.907 10.5 3.89244 10.5C3.87788 10.5 3.8634 10.5 3.84898 10.5C3.83457 10.5 3.82023 10.5 3.80595 10.5C3.79168 10.5 3.77748 10.5 3.76336 10.5C3.74923 10.5 3.73517 10.5 3.72119 10.5C3.70721 10.5 3.6933 10.5 3.67947 10.5C3.66563 10.5 3.65187 10.5 3.63818 10.5C3.62449 10.5 3.61088 10.5 3.59734 10.5C3.5838 10.5 3.57033 10.5 3.55694 10.5C3.54355 10.5 3.53023 10.5 3.51699 10.5C3.50375 10.5 3.49058 10.5 3.47749 10.5C3.4644 10.5 3.45138 10.5 3.43845 10.5C3.42551 10.5 3.41264 10.5 3.39986 10.5C3.38707 10.5 3.37436 10.5 3.36173 10.5C3.3491 10.5 3.33654 10.5 3.32406 10.5C3.31159 10.5 3.29918 10.5 3.28686 10.5C3.27454 10.5 3.2623 10.5 3.25013 10.5C3.23796 10.5 3.22588 10.5 3.21387 10.5C3.20186 10.5 3.18993 10.5 3.17808 10.5C3.16623 10.5 3.15446 10.5 3.14277 10.5C3.13107 10.5 3.11946 10.5 3.10793 10.5C3.0964 10.5 3.08495 10.5 3.07358 10.5C3.06221 10.5 3.05092 10.5 3.03971 10.5C3.02851 10.5 3.01738 10.5 3.00633 10.5C2.99529 10.5 2.98433 10.5 2.97345 10.5C2.96256 10.5 2.95177 10.5 2.94105 10.5C2.93033 10.5 2.9197 10.5 2.90915 10.5C2.8986 10.5 2.88813 10.5 2.87775 10.5C2.86736 10.5 2.85706 10.5 2.84685 10.5C2.83663 10.5 2.8265 10.5 2.81645 10.5C2.8064 10.5 2.79644 10.5 2.78656 10.5C2.77668 10.5 2.76689 10.5 2.75718 10.5C2.74748 10.5 2.73785 10.5 2.72832 10.5C2.71878 10.5 2.70933 10.5 2.69997 10.5C2.6906 10.5 2.68132 10.5 2.67213 10.5C2.66294 10.5 2.65384 10.5 2.64482 10.5C2.63581 10.5 2.62688 10.5 2.61803 10.5C2.60919 10.5 2.60044 10.5 2.59177 10.5C2.58311 10.5 2.57453 10.5 2.56604 10.5C2.55755 10.5 2.54915 10.5 2.54084 10.5C2.53253 10.5 2.52431 10.5 2.51618 10.5C2.50804 10.5 2.5 10.5 2.49205 10.5C2.4841 10.5 2.47623 10.5 2.46846 10.5C2.46069 10.5 2.45301 10.5 2.44542 10.5C2.43783 10.5 2.43033 10.5 2.42292 10.5C2.41551 10.5 2.4082 10.5 2.40097 10.5C2.39375 10.5 2.38662 10.5 2.37958 10.5C2.37254 10.5 2.36559 10.5 2.35873 10.5C2.35188 10.5 2.34512 10.5 2.33845 10.5C2.33178 10.5 2.32521 10.5 2.31873 10.5C2.31224 10.5 2.30586 10.5 2.29956 10.5C2.29327 10.5 2.28707 10.5 2.28097 10.5C2.27486 10.5 2.26885 10.5 2.26294 10.5C2.25703 10.5 2.25121 10.5 2.24548 10.5C2.23976 10.5 2.23413 10.5 2.2286 10.5C2.22307 10.5 2.21764 10.5 2.2123 10.5C2.20696 10.5 2.20172 10.5 2.19657 10.5C2.19143 10.5 2.18638 10.5 2.18143 10.5C2.17648 10.5 2.17163 10.5 2.16687 10.5C2.16212 10.5 2.15746 10.5 2.1529 10.5C2.14834 10.5 2.14388 10.5 2.13952 10.5C2.13516 10.5 2.1309 10.5 2.12674 10.5C2.12257 10.5 2.11851 10.5 2.11455 10.5C2.11059 10.5 2.10672 10.5 2.10296 10.5C2.0992 10.5 2.09553 10.5 2.09197 10.5C2.08841 10.5 2.08495 10.5 2.08159 10.5C2.07823 10.5 2.07497 10.5 2.07181 10.5C2.06866 10.5 2.0656 10.5 2.06265 10.5C2.0597 10.5 2.05685 10.5 2.0541 10.5C2.05135 10.5 2.0487 10.5 2.04616 10.5C2.04362 10.5 2.04118 10.5 2.03885 10.5C2.03651 10.5 2.03428 10.5 2.03215 10.5C2.03002 10.5 2.028 10.5 2.02608 10.5C2.02416 10.5 2.02235 10.5 2.02064 10.5C2.01893 10.5 2.01732 10.5 2.01582 10.5C2.01432 10.5 2.01293 10.5 2.01164 10.5C2.01035 10.5 2.00917 10.5 2.0081 10.5C2.00702 10.5 2.00605 10.5 2.00519 10.5C2.00433 10.5 2.00357 10.5 2.00292 10.5C2.00227 10.5 2.00173 10.5 2.0013 10.5C2.00087 10.5 2.00054 10.5 2.00033 10.5C2.00011 10.5 2 10.5 2 12Z" fill="white"/>
</svg>
