<svg width="26" height="24" viewBox="0 0 26 24" fill="none" xmlns="http://www.w3.org/2000/svg">
<path d="M25.0616 13.0587C25.6474 12.4729 25.6474 11.5232 25.0616 10.9374L15.5157 1.39145C14.9299 0.805658 13.9802 0.805658 13.3944 1.39145C12.8086 1.97723 12.8086 2.92698 13.3944 3.51277L21.8797 11.998L13.3944 20.4833C12.8086 21.0691 12.8086 22.0189 13.3944 22.6046C13.9802 23.1904 14.9299 23.1904 15.5157 22.6046L25.0616 13.0587ZM24.001 11.998C24.001 10.498 24.0009 10.498 24.0007 10.498C24.0005 10.498 24.0001 10.498 23.9997 10.498C23.9993 10.498 23.9988 10.498 23.9981 10.498C23.9975 10.498 23.9968 10.498 23.9959 10.498C23.9951 10.498 23.9942 10.498 23.9931 10.498C23.9921 10.498 23.9909 10.498 23.9897 10.498C23.9884 10.498 23.9871 10.498 23.9856 10.498C23.9842 10.498 23.9826 10.498 23.981 10.498C23.9793 10.498 23.9775 10.498 23.9757 10.498C23.9738 10.498 23.9718 10.498 23.9698 10.498C23.9677 10.498 23.9656 10.498 23.9633 10.498C23.961 10.498 23.9587 10.498 23.9562 10.498C23.9537 10.498 23.9512 10.498 23.9485 10.498C23.9458 10.498 23.9431 10.498 23.9402 10.498C23.9373 10.498 23.9344 10.498 23.9313 10.498C23.9282 10.498 23.9251 10.498 23.9218 10.498C23.9186 10.498 23.9152 10.498 23.9117 10.498C23.9083 10.498 23.9047 10.498 23.9011 10.498C23.8974 10.498 23.8937 10.498 23.8898 10.498C23.886 10.498 23.882 10.498 23.878 10.498C23.874 10.498 23.8698 10.498 23.8656 10.498C23.8614 10.498 23.857 10.498 23.8526 10.498C23.8482 10.498 23.8437 10.498 23.8391 10.498C23.8345 10.498 23.8297 10.498 23.8249 10.498C23.8201 10.498 23.8152 10.498 23.8102 10.498C23.8053 10.498 23.8002 10.498 23.795 10.498C23.7898 10.498 23.7845 10.498 23.7792 10.498C23.7738 10.498 23.7683 10.498 23.7628 10.498C23.7572 10.498 23.7516 10.498 23.7459 10.498C23.7401 10.498 23.7343 10.498 23.7284 10.498C23.7224 10.498 23.7164 10.498 23.7103 10.498C23.7042 10.498 23.698 10.498 23.6917 10.498C23.6854 10.498 23.6791 10.498 23.6726 10.498C23.6661 10.498 23.6596 10.498 23.6529 10.498C23.6463 10.498 23.6395 10.498 23.6327 10.498C23.6259 10.498 23.6189 10.498 23.6119 10.498C23.6049 10.498 23.5978 10.498 23.5906 10.498C23.5834 10.498 23.5762 10.498 23.5688 10.498C23.5614 10.498 23.554 10.498 23.5464 10.498C23.5389 10.498 23.5313 10.498 23.5236 10.498C23.5158 10.498 23.508 10.498 23.5001 10.498C23.4923 10.498 23.4843 10.498 23.4762 10.498C23.4682 10.498 23.46 10.498 23.4518 10.498C23.4435 10.498 23.4352 10.498 23.4268 10.498C23.4184 10.498 23.4099 10.498 23.4013 10.498C23.3927 10.498 23.3841 10.498 23.3753 10.498C23.3666 10.498 23.3577 10.498 23.3488 10.498C23.3399 10.498 23.3309 10.498 23.3218 10.498C23.3127 10.498 23.3036 10.498 23.2943 10.498C23.2851 10.498 23.2757 10.498 23.2663 10.498C23.2569 10.498 23.2474 10.498 23.2378 10.498C23.2282 10.498 23.2185 10.498 23.2088 10.498C23.199 10.498 23.1892 10.498 23.1793 10.498C23.1694 10.498 23.1594 10.498 23.1493 10.498C23.1392 10.498 23.1291 10.498 23.1189 10.498C23.1086 10.498 23.0983 10.498 23.0879 10.498C23.0775 10.498 23.067 10.498 23.0565 10.498C23.0459 10.498 23.0353 10.498 23.0246 10.498C23.0138 10.498 23.003 10.498 22.9922 10.498C22.9813 10.498 22.9703 10.498 22.9593 10.498C22.9483 10.498 22.9372 10.498 22.926 10.498C22.9148 10.498 22.9035 10.498 22.8922 10.498C22.8808 10.498 22.8694 10.498 22.8579 10.498C22.8464 10.498 22.8348 10.498 22.8232 10.498C22.8115 10.498 22.7998 10.498 22.788 10.498C22.7762 10.498 22.7643 10.498 22.7524 10.498C22.7404 10.498 22.7284 10.498 22.7163 10.498C22.7042 10.498 22.692 10.498 22.6797 10.498C22.6675 10.498 22.6551 10.498 22.6427 10.498C22.6303 10.498 22.6178 10.498 22.6053 10.498C22.5927 10.498 22.5801 10.498 22.5674 10.498C22.5547 10.498 22.5419 10.498 22.5291 10.498C22.5162 10.498 22.5033 10.498 22.4903 10.498C22.4773 10.498 22.4643 10.498 22.4511 10.498C22.438 10.498 22.4248 10.498 22.4115 10.498C22.3982 10.498 22.3849 10.498 22.3714 10.498C22.358 10.498 22.3445 10.498 22.331 10.498C22.3174 10.498 22.3037 10.498 22.29 10.498C22.2763 10.498 22.2626 10.498 22.2487 10.498C22.2349 10.498 22.2209 10.498 22.207 10.498C22.193 10.498 22.1789 10.498 22.1648 10.498C22.1507 10.498 22.1365 10.498 22.1222 10.498C22.108 10.498 22.0936 10.498 22.0792 10.498C22.0648 10.498 22.0504 10.498 22.0358 10.498C22.0213 10.498 22.0067 10.498 21.992 10.498C21.9774 10.498 21.9626 10.498 21.9478 10.498C21.933 10.498 21.9181 10.498 21.9032 10.498C21.8883 10.498 21.8733 10.498 21.8582 10.498C21.8431 10.498 21.828 10.498 21.8128 10.498C21.7976 10.498 21.7823 10.498 21.767 10.498C21.7517 10.498 21.7363 10.498 21.7208 10.498C21.7054 10.498 21.6899 10.498 21.6743 10.498C21.6587 10.498 21.643 10.498 21.6273 10.498C21.6116 10.498 21.5958 10.498 21.58 10.498C21.5642 10.498 21.5483 10.498 21.5323 10.498C21.5163 10.498 21.5003 10.498 21.4842 10.498C21.4681 10.498 21.452 10.498 21.4358 10.498C21.4195 10.498 21.4033 10.498 21.3869 10.498C21.3706 10.498 21.3542 10.498 21.3377 10.498C21.3213 10.498 21.3048 10.498 21.2882 10.498C21.2716 10.498 21.255 10.498 21.2383 10.498C21.2216 10.498 21.2048 10.498 21.188 10.498C21.1712 10.498 21.1543 10.498 21.1374 10.498C21.1204 10.498 21.1034 10.498 21.0864 10.498C21.0693 10.498 21.0522 10.498 21.035 10.498C21.0179 10.498 21.0006 10.498 20.9833 10.498C20.9661 10.498 20.9487 10.498 20.9313 10.498C20.9139 10.498 20.8965 10.498 20.8789 10.498C20.7302 10.498 20.9223 10.498 20.7732 10.498C20.6289 10.498 20.8108 10.498 20.6661 10.498C20.5262 10.498 20.6979 10.498 20.5576 10.498C20.4221 10.498 20.5839 10.498 20.4479 10.498C20.3166 10.498 20.4687 10.498 20.3369 10.498C20.2097 10.498 20.3523 10.498 20.2247 10.498C20.1015 10.498 20.2348 10.498 20.1112 10.498C19.9921 10.498 20.1161 10.498 19.9965 10.498C19.8813 10.498 19.9963 10.498 19.8807 10.498C19.7692 10.498 19.8754 10.498 19.7636 10.498C19.6559 10.498 19.7535 10.498 19.6454 10.498C19.5414 10.498 19.6305 10.498 19.5261 10.498C19.3293 10.498 19.4826 10.498 19.2843 10.498C19.1012 10.498 19.2226 10.498 19.0381 10.498C18.8683 10.498 18.9591 10.498 18.788 10.498C18.6308 10.498 18.6923 10.498 18.5339 10.498C18.3889 10.498 18.4224 10.498 18.2762 10.498C18.0215 10.498 18.0093 10.498 17.7502 10.498C17.3678 10.498 17.0591 10.498 16.6615 10.498C16.5866 10.498 16.4584 10.498 16.3827 10.498C16.3481 10.498 16.2771 10.498 16.2424 10.498C16.2189 10.498 16.1955 10.498 16.172 10.498C16.1485 10.498 16.125 10.498 16.1015 10.498C15.9909 10.498 15.6461 10.498 15.5329 10.498C15.4491 10.498 15.0431 10.498 14.9571 10.498C14.9239 10.498 14.7006 10.498 14.6669 10.498C14.6392 10.498 14.4036 10.498 14.3755 10.498C14.3529 10.498 14.1059 10.498 14.083 10.498C14.0651 10.498 13.8077 10.498 13.7895 10.498C13.7759 10.498 13.509 10.498 13.4952 10.498C13.4857 10.498 13.2102 10.498 13.2004 10.498C13.1945 10.498 12.9112 10.498 12.9052 10.498C12.9026 10.498 12.6124 10.498 12.6097 10.498C12.6096 10.498 12.4621 10.498 12.462 10.498C12.4373 10.498 12.4127 10.498 12.3881 10.498C12.3635 10.498 12.3388 10.498 12.3142 10.498C12.2896 10.498 12.265 10.498 12.2403 10.498C12.2157 10.498 12.1911 10.498 12.1665 10.498C12.1419 10.498 12.1172 10.498 12.0926 10.498C12.068 10.498 12.0434 10.498 12.0188 10.498C11.9942 10.498 11.9696 10.498 11.945 10.498C11.9204 10.498 11.8958 10.498 11.8712 10.498C11.8466 10.498 11.822 10.498 11.7974 10.498C11.7728 10.498 11.7482 10.498 11.7236 10.498C11.6991 10.498 11.6745 10.498 11.6499 10.498C11.6254 10.498 11.6008 10.498 11.5762 10.498C11.5517 10.498 11.5271 10.498 11.5026 10.498C11.478 10.498 11.4535 10.498 11.429 10.498C11.4044 10.498 11.3799 10.498 11.3554 10.498C11.3309 10.498 11.3064 10.498 11.2819 10.498C11.2573 10.498 11.2328 10.498 11.2084 10.498C11.1839 10.498 11.1594 10.498 11.1349 10.498C11.1104 10.498 11.086 10.498 11.0615 10.498C11.0371 10.498 11.0126 10.498 10.9882 10.498C10.9637 10.498 10.9393 10.498 10.9149 10.498C10.8905 10.498 10.8661 10.498 10.8417 10.498C10.8173 10.498 10.7929 10.498 10.7685 10.498C10.7441 10.498 10.7198 10.498 10.6954 10.498C10.671 10.498 10.6467 10.498 10.6224 10.498C10.598 10.498 10.5737 10.498 10.5494 10.498C10.5251 10.498 10.5008 10.498 10.4765 10.498C10.4522 10.498 10.4279 10.498 10.4037 10.498C10.3794 10.498 10.3552 10.498 10.3309 10.498C10.3067 10.498 10.2825 10.498 10.2583 10.498C10.2341 10.498 10.2099 10.498 10.1857 10.498C10.1615 10.498 10.1374 10.498 10.1132 10.498C10.0891 10.498 10.0649 10.498 10.0408 10.498C10.0167 10.498 9.99258 10.498 9.96849 10.498C9.9444 10.498 9.92032 10.498 9.89626 10.498C9.87221 10.498 9.84816 10.498 9.82414 10.498C9.80011 10.498 9.7761 10.498 9.75211 10.498C9.72812 10.498 9.70415 10.498 9.68019 10.498C9.65623 10.498 9.63229 10.498 9.60837 10.498C9.58445 10.498 9.56054 10.498 9.53666 10.498C9.51277 10.498 9.4889 10.498 9.46505 10.498C9.4412 10.498 9.41737 10.498 9.39356 10.498C9.36975 10.498 9.34596 10.498 9.32219 10.498C9.29842 10.498 9.27466 10.498 9.25093 10.498C9.2272 10.498 9.20349 10.498 9.17979 10.498C9.1561 10.498 9.13243 10.498 9.10878 10.498C9.08513 10.498 9.0615 10.498 9.03789 10.498C9.01429 10.498 8.9907 10.498 8.96714 10.498C8.94357 10.498 8.92003 10.498 8.89651 10.498C8.87299 10.498 8.84949 10.498 8.82602 10.498C8.80254 10.498 8.77909 10.498 8.75566 10.498C8.73223 10.498 8.70883 10.498 8.68545 10.498C8.66207 10.498 8.63871 10.498 8.61537 10.498C8.59204 10.498 8.56873 10.498 8.54545 10.498C8.52216 10.498 8.4989 10.498 8.47567 10.498C8.45243 10.498 8.42922 10.498 8.40604 10.498C8.38285 10.498 8.35969 10.498 8.33656 10.498C8.31343 10.498 8.29032 10.498 8.26724 10.498C8.24416 10.498 8.22111 10.498 8.19808 10.498C8.17505 10.498 8.15205 10.498 8.12908 10.498C8.1061 10.498 8.08316 10.498 8.06024 10.498C8.03732 10.498 8.01443 10.498 7.99157 10.498C7.96871 10.498 7.94588 10.498 7.92307 10.498C7.90027 10.498 7.87749 10.498 7.85474 10.498C7.832 10.498 7.80928 10.498 7.78659 10.498C7.7639 10.498 7.74125 10.498 7.71862 10.498C7.69599 10.498 7.67339 10.498 7.65082 10.498C7.62825 10.498 7.60572 10.498 7.58321 10.498C7.5607 10.498 7.53823 10.498 7.51578 10.498C7.49334 10.498 7.47093 10.498 7.44855 10.498C7.42617 10.498 7.40382 10.498 7.3815 10.498C7.35918 10.498 7.3369 10.498 7.31465 10.498C7.2924 10.498 7.27018 10.498 7.24799 10.498C7.22581 10.498 7.20365 10.498 7.18154 10.498C7.15942 10.498 7.13733 10.498 7.11528 10.498C7.09323 10.498 7.07121 10.498 7.04923 10.498C7.02725 10.498 7.0053 10.498 6.98339 10.498C6.96148 10.498 6.9396 10.498 6.91776 10.498C6.89592 10.498 6.87411 10.498 6.85234 10.498C6.83057 10.498 6.80883 10.498 6.78713 10.498C6.76544 10.498 6.74377 10.498 6.72215 10.498C6.70052 10.498 6.67894 10.498 6.65738 10.498C6.63583 10.498 6.61432 10.498 6.59284 10.498C6.57137 10.498 6.54993 10.498 6.52853 10.498C6.50713 10.498 6.48577 10.498 6.46445 10.498C6.44312 10.498 6.42184 10.498 6.40059 10.498C6.37935 10.498 6.35814 10.498 6.33697 10.498C6.31581 10.498 6.29468 10.498 6.27359 10.498C6.2525 10.498 6.23146 10.498 6.21045 10.498C6.18944 10.498 6.16848 10.498 6.14755 10.498C6.12663 10.498 6.10574 10.498 6.0849 10.498C6.06406 10.498 6.04325 10.498 6.0225 10.498C6.00173 10.498 5.98102 10.498 5.96034 10.498C5.93966 10.498 5.91903 10.498 5.89844 10.498C5.87785 10.498 5.8573 10.498 5.8368 10.498C5.81629 10.498 5.79583 10.498 5.77541 10.498C5.75499 10.498 5.73462 10.498 5.71429 10.498C5.69396 10.498 5.67367 10.498 5.65343 10.498C5.63318 10.498 5.61299 10.498 5.59283 10.498C5.57268 10.498 5.55257 10.498 5.53251 10.498C5.51245 10.498 5.49243 10.498 5.47246 10.498C5.45249 10.498 5.43257 10.498 5.41269 10.498C5.39281 10.498 5.37298 10.498 5.35319 10.498C5.3334 10.498 5.31367 10.498 5.29398 10.498C5.27428 10.498 5.25464 10.498 5.23504 10.498C5.21544 10.498 5.1959 10.498 5.1764 10.498C5.15689 10.498 5.13744 10.498 5.11804 10.498C5.09863 10.498 5.07928 10.498 5.05997 10.498C5.05945 10.498 4.94485 10.498 4.94472 10.498C4.94207 10.498 4.71887 10.498 4.71785 10.498C4.71359 10.498 4.49851 10.498 4.49594 10.498C4.49009 10.498 4.28327 10.498 4.27917 10.498C4.27175 10.498 4.07333 10.498 4.06771 10.498C4.04629 10.498 3.67532 10.498 3.66144 10.498C3.6341 10.498 3.29785 10.498 3.27851 10.498C3.26389 10.498 3.10877 10.498 3.09624 10.498C3.08038 10.498 2.93402 10.498 2.92031 10.498C2.88294 10.498 2.61666 10.498 2.58823 10.498C2.57495 10.498 2.56175 10.498 2.54862 10.498C2.53549 10.498 2.52243 10.498 2.50945 10.498C2.50018 10.498 2.44109 10.498 2.43241 10.498C2.42295 10.498 2.366 10.498 2.35714 10.498C2.3475 10.498 2.29268 10.498 2.28365 10.498C2.18323 10.498 1.82259 10.498 1.76255 10.498C1.66125 10.498 1.42534 10.498 1.36812 10.498C1.27952 10.498 1.15231 10.498 1.11147 10.498C1.08416 10.498 1.05297 10.498 1.03829 10.498C1.03418 10.498 1.02927 10.498 1.02597 10.498C1.02412 10.498 1.02237 10.498 1.02072 10.498C1.01907 10.498 1.01753 10.498 1.01608 10.498C1.01048 10.498 1.00601 10.498 1.00371 10.498C1.00249 10.498 1.00164 10.498 1.00126 10.498C1.00106 10.498 -0.499033 11.998 1.00098 13.498C1.00099 13.498 1.00111 13.498 1.00133 13.498C1.00227 13.498 1.00477 13.498 1.00912 13.498C1.01891 13.498 1.03211 13.498 1.05593 13.498C1.11509 13.498 1.16119 13.498 1.27923 13.498C1.28574 13.498 1.29237 13.498 1.29912 13.498C1.30587 13.498 1.31274 13.498 1.31973 13.498C1.33855 13.498 1.34331 13.498 1.36309 13.498C1.40464 13.498 1.41308 13.498 1.45851 13.498C1.55843 13.498 1.56894 13.498 1.68473 13.498V10.498C1.56894 10.498 1.55843 10.498 1.45851 10.498C1.41308 10.498 1.40464 10.498 1.36309 10.498C1.34331 10.498 1.33855 10.498 1.31973 10.498C1.31274 10.498 1.30587 10.498 1.29912 10.498C1.29237 10.498 1.28574 10.498 1.27923 10.498C1.16119 10.498 1.11509 10.498 1.05593 10.498C1.03211 10.498 1.01891 10.498 1.00912 10.498C1.00477 10.498 1.00227 10.498 1.00133 10.498C1.00111 10.498 1.00099 10.498 1.00098 10.498C2.50097 11.998 1.00106 13.498 1.00126 13.498C1.00164 13.498 1.00249 13.498 1.00371 13.498C1.00601 13.498 1.01048 13.498 1.01608 13.498C1.01753 13.498 1.01907 13.498 1.02072 13.498C1.02237 13.498 1.02412 13.498 1.02597 13.498C1.02927 13.498 1.03418 13.498 1.03829 13.498C1.05297 13.498 1.08416 13.498 1.11147 13.498C1.15231 13.498 1.27952 13.498 1.36812 13.498C1.42534 13.498 1.66125 13.498 1.76255 13.498C1.82259 13.498 2.18323 13.498 2.28365 13.498C2.29268 13.498 2.3475 13.498 2.35714 13.498C2.366 13.498 2.42295 13.498 2.43241 13.498C2.44109 13.498 2.50018 13.498 2.50945 13.498C2.52243 13.498 2.53549 13.498 2.54862 13.498C2.56175 13.498 2.57495 13.498 2.58823 13.498C2.61666 13.498 2.88294 13.498 2.92031 13.498C2.93402 13.498 3.08038 13.498 3.09624 13.498C3.10877 13.498 3.26389 13.498 3.27851 13.498C3.29785 13.498 3.6341 13.498 3.66144 13.498C3.67532 13.498 4.04629 13.498 4.06771 13.498C4.07333 13.498 4.27175 13.498 4.27917 13.498C4.28327 13.498 4.49009 13.498 4.49594 13.498C4.49851 13.498 4.71359 13.498 4.71785 13.498C4.71887 13.498 4.94207 13.498 4.94472 13.498C4.94485 13.498 5.05945 13.498 5.05997 13.498C5.07928 13.498 5.09863 13.498 5.11804 13.498C5.13744 13.498 5.15689 13.498 5.1764 13.498C5.1959 13.498 5.21544 13.498 5.23504 13.498C5.25464 13.498 5.27428 13.498 5.29398 13.498C5.31367 13.498 5.3334 13.498 5.35319 13.498C5.37298 13.498 5.39281 13.498 5.41269 13.498C5.43257 13.498 5.45249 13.498 5.47246 13.498C5.49243 13.498 5.51245 13.498 5.53251 13.498C5.55257 13.498 5.57268 13.498 5.59283 13.498C5.61299 13.498 5.63318 13.498 5.65343 13.498C5.67367 13.498 5.69396 13.498 5.71429 13.498C5.73462 13.498 5.75499 13.498 5.77541 13.498C5.79583 13.498 5.81629 13.498 5.8368 13.498C5.8573 13.498 5.87785 13.498 5.89844 13.498C5.91903 13.498 5.93966 13.498 5.96034 13.498C5.98102 13.498 6.00173 13.498 6.0225 13.498C6.04325 13.498 6.06406 13.498 6.0849 13.498C6.10574 13.498 6.12663 13.498 6.14755 13.498C6.16848 13.498 6.18944 13.498 6.21045 13.498C6.23146 13.498 6.2525 13.498 6.27359 13.498C6.29468 13.498 6.31581 13.498 6.33697 13.498C6.35814 13.498 6.37935 13.498 6.40059 13.498C6.42184 13.498 6.44312 13.498 6.46445 13.498C6.48577 13.498 6.50713 13.498 6.52853 13.498C6.54993 13.498 6.57137 13.498 6.59284 13.498C6.61432 13.498 6.63583 13.498 6.65738 13.498C6.67894 13.498 6.70052 13.498 6.72215 13.498C6.74377 13.498 6.76544 13.498 6.78713 13.498C6.80883 13.498 6.83057 13.498 6.85234 13.498C6.87411 13.498 6.89592 13.498 6.91776 13.498C6.9396 13.498 6.96148 13.498 6.98339 13.498C7.0053 13.498 7.02725 13.498 7.04923 13.498C7.07121 13.498 7.09323 13.498 7.11528 13.498C7.13733 13.498 7.15942 13.498 7.18154 13.498C7.20365 13.498 7.22581 13.498 7.24799 13.498C7.27018 13.498 7.2924 13.498 7.31465 13.498C7.3369 13.498 7.35918 13.498 7.3815 13.498C7.40382 13.498 7.42617 13.498 7.44855 13.498C7.47093 13.498 7.49334 13.498 7.51578 13.498C7.53823 13.498 7.5607 13.498 7.58321 13.498C7.60572 13.498 7.62825 13.498 7.65082 13.498C7.67339 13.498 7.69599 13.498 7.71862 13.498C7.74125 13.498 7.7639 13.498 7.78659 13.498C7.80928 13.498 7.832 13.498 7.85474 13.498C7.87749 13.498 7.90027 13.498 7.92307 13.498C7.94588 13.498 7.96871 13.498 7.99157 13.498C8.01443 13.498 8.03732 13.498 8.06024 13.498C8.08316 13.498 8.1061 13.498 8.12908 13.498C8.15205 13.498 8.17505 13.498 8.19808 13.498C8.22111 13.498 8.24416 13.498 8.26724 13.498C8.29032 13.498 8.31343 13.498 8.33656 13.498C8.35969 13.498 8.38285 13.498 8.40604 13.498C8.42922 13.498 8.45243 13.498 8.47567 13.498C8.4989 13.498 8.52216 13.498 8.54545 13.498C8.56873 13.498 8.59204 13.498 8.61537 13.498C8.63871 13.498 8.66207 13.498 8.68545 13.498C8.70883 13.498 8.73223 13.498 8.75566 13.498C8.77909 13.498 8.80254 13.498 8.82602 13.498C8.84949 13.498 8.87299 13.498 8.89651 13.498C8.92003 13.498 8.94357 13.498 8.96714 13.498C8.9907 13.498 9.01429 13.498 9.03789 13.498C9.0615 13.498 9.08513 13.498 9.10878 13.498C9.13243 13.498 9.1561 13.498 9.17979 13.498C9.20349 13.498 9.2272 13.498 9.25093 13.498C9.27466 13.498 9.29842 13.498 9.32219 13.498C9.34596 13.498 9.36975 13.498 9.39356 13.498C9.41737 13.498 9.4412 13.498 9.46505 13.498C9.4889 13.498 9.51277 13.498 9.53666 13.498C9.56054 13.498 9.58445 13.498 9.60837 13.498C9.63229 13.498 9.65623 13.498 9.68019 13.498C9.70415 13.498 9.72812 13.498 9.75211 13.498C9.7761 13.498 9.80011 13.498 9.82414 13.498C9.84816 13.498 9.87221 13.498 9.89626 13.498C9.92032 13.498 9.9444 13.498 9.96849 13.498C9.99258 13.498 10.0167 13.498 10.0408 13.498C10.0649 13.498 10.0891 13.498 10.1132 13.498C10.1374 13.498 10.1615 13.498 10.1857 13.498C10.2099 13.498 10.2341 13.498 10.2583 13.498C10.2825 13.498 10.3067 13.498 10.3309 13.498C10.3552 13.498 10.3794 13.498 10.4037 13.498C10.4279 13.498 10.4522 13.498 10.4765 13.498C10.5008 13.498 10.5251 13.498 10.5494 13.498C10.5737 13.498 10.598 13.498 10.6224 13.498C10.6467 13.498 10.671 13.498 10.6954 13.498C10.7198 13.498 10.7441 13.498 10.7685 13.498C10.7929 13.498 10.8173 13.498 10.8417 13.498C10.8661 13.498 10.8905 13.498 10.9149 13.498C10.9393 13.498 10.9637 13.498 10.9882 13.498C11.0126 13.498 11.0371 13.498 11.0615 13.498C11.086 13.498 11.1104 13.498 11.1349 13.498C11.1594 13.498 11.1839 13.498 11.2084 13.498C11.2328 13.498 11.2573 13.498 11.2819 13.498C11.3064 13.498 11.3309 13.498 11.3554 13.498C11.3799 13.498 11.4044 13.498 11.429 13.498C11.4535 13.498 11.478 13.498 11.5026 13.498C11.5271 13.498 11.5517 13.498 11.5762 13.498C11.6008 13.498 11.6254 13.498 11.6499 13.498C11.6745 13.498 11.6991 13.498 11.7236 13.498C11.7482 13.498 11.7728 13.498 11.7974 13.498C11.822 13.498 11.8466 13.498 11.8712 13.498C11.8958 13.498 11.9204 13.498 11.945 13.498C11.9696 13.498 11.9942 13.498 12.0188 13.498C12.0434 13.498 12.068 13.498 12.0926 13.498C12.1172 13.498 12.1419 13.498 12.1665 13.498C12.1911 13.498 12.2157 13.498 12.2403 13.498C12.265 13.498 12.2896 13.498 12.3142 13.498C12.3388 13.498 12.3635 13.498 12.3881 13.498C12.4127 13.498 12.4373 13.498 12.462 13.498C12.4621 13.498 12.6096 13.498 12.6097 13.498C12.6124 13.498 12.9026 13.498 12.9052 13.498C12.9112 13.498 13.1945 13.498 13.2004 13.498C13.2102 13.498 13.4857 13.498 13.4952 13.498C13.509 13.498 13.7759 13.498 13.7895 13.498C13.8077 13.498 14.0651 13.498 14.083 13.498C14.1059 13.498 14.3529 13.498 14.3755 13.498C14.4036 13.498 14.6392 13.498 14.6669 13.498C14.7006 13.498 14.9239 13.498 14.9571 13.498C15.0431 13.498 15.4491 13.498 15.5329 13.498C15.6461 13.498 15.9909 13.498 16.1015 13.498C16.125 13.498 16.1485 13.498 16.172 13.498C16.1955 13.498 16.2189 13.498 16.2424 13.498C16.2771 13.498 16.3481 13.498 16.3827 13.498C16.4584 13.498 16.5866 13.498 16.6615 13.498C17.0591 13.498 17.3678 13.498 17.7502 13.498C18.0093 13.498 18.0215 13.498 18.2762 13.498C18.4224 13.498 18.3889 13.498 18.5339 13.498C18.6923 13.498 18.6308 13.498 18.788 13.498C18.9591 13.498 18.8683 13.498 19.0381 13.498C19.2226 13.498 19.1012 13.498 19.2843 13.498C19.4826 13.498 19.3293 13.498 19.5261 13.498C19.6305 13.498 19.5414 13.498 19.6454 13.498C19.7535 13.498 19.6559 13.498 19.7636 13.498C19.8754 13.498 19.7692 13.498 19.8807 13.498C19.9963 13.498 19.8813 13.498 19.9965 13.498C20.1161 13.498 19.9921 13.498 20.1112 13.498C20.2348 13.498 20.1015 13.498 20.2247 13.498C20.3523 13.498 20.2097 13.498 20.3369 13.498C20.4687 13.498 20.3166 13.498 20.4479 13.498C20.5839 13.498 20.4221 13.498 20.5576 13.498C20.6979 13.498 20.5262 13.498 20.6661 13.498C20.8108 13.498 20.6289 13.498 20.7732 13.498C20.9223 13.498 20.7302 13.498 20.8789 13.498C20.8965 13.498 20.9139 13.498 20.9313 13.498C20.9487 13.498 20.9661 13.498 20.9833 13.498C21.0006 13.498 21.0179 13.498 21.035 13.498C21.0522 13.498 21.0693 13.498 21.0864 13.498C21.1034 13.498 21.1204 13.498 21.1374 13.498C21.1543 13.498 21.1712 13.498 21.188 13.498C21.2048 13.498 21.2216 13.498 21.2383 13.498C21.255 13.498 21.2716 13.498 21.2882 13.498C21.3048 13.498 21.3213 13.498 21.3377 13.498C21.3542 13.498 21.3706 13.498 21.3869 13.498C21.4033 13.498 21.4195 13.498 21.4358 13.498C21.452 13.498 21.4681 13.498 21.4842 13.498C21.5003 13.498 21.5163 13.498 21.5323 13.498C21.5483 13.498 21.5642 13.498 21.58 13.498C21.5958 13.498 21.6116 13.498 21.6273 13.498C21.643 13.498 21.6587 13.498 21.6743 13.498C21.6899 13.498 21.7054 13.498 21.7208 13.498C21.7363 13.498 21.7517 13.498 21.767 13.498C21.7823 13.498 21.7976 13.498 21.8128 13.498C21.828 13.498 21.8431 13.498 21.8582 13.498C21.8733 13.498 21.8883 13.498 21.9032 13.498C21.9181 13.498 21.933 13.498 21.9478 13.498C21.9626 13.498 21.9774 13.498 21.992 13.498C22.0067 13.498 22.0213 13.498 22.0358 13.498C22.0504 13.498 22.0648 13.498 22.0792 13.498C22.0936 13.498 22.108 13.498 22.1222 13.498C22.1365 13.498 22.1507 13.498 22.1648 13.498C22.1789 13.498 22.193 13.498 22.207 13.498C22.2209 13.498 22.2349 13.498 22.2487 13.498C22.2626 13.498 22.2763 13.498 22.29 13.498C22.3037 13.498 22.3174 13.498 22.331 13.498C22.3445 13.498 22.358 13.498 22.3714 13.498C22.3849 13.498 22.3982 13.498 22.4115 13.498C22.4248 13.498 22.438 13.498 22.4511 13.498C22.4643 13.498 22.4773 13.498 22.4903 13.498C22.5033 13.498 22.5162 13.498 22.5291 13.498C22.5419 13.498 22.5547 13.498 22.5674 13.498C22.5801 13.498 22.5927 13.498 22.6053 13.498C22.6178 13.498 22.6303 13.498 22.6427 13.498C22.6551 13.498 22.6675 13.498 22.6797 13.498C22.692 13.498 22.7042 13.498 22.7163 13.498C22.7284 13.498 22.7404 13.498 22.7524 13.498C22.7643 13.498 22.7762 13.498 22.788 13.498C22.7998 13.498 22.8115 13.498 22.8232 13.498C22.8348 13.498 22.8464 13.498 22.8579 13.498C22.8694 13.498 22.8808 13.498 22.8922 13.498C22.9035 13.498 22.9148 13.498 22.926 13.498C22.9372 13.498 22.9483 13.498 22.9593 13.498C22.9703 13.498 22.9813 13.498 22.9922 13.498C23.003 13.498 23.0138 13.498 23.0246 13.498C23.0353 13.498 23.0459 13.498 23.0565 13.498C23.067 13.498 23.0775 13.498 23.0879 13.498C23.0983 13.498 23.1086 13.498 23.1189 13.498C23.1291 13.498 23.1392 13.498 23.1493 13.498C23.1594 13.498 23.1694 13.498 23.1793 13.498C23.1892 13.498 23.199 13.498 23.2088 13.498C23.2185 13.498 23.2282 13.498 23.2378 13.498C23.2474 13.498 23.2569 13.498 23.2663 13.498C23.2757 13.498 23.2851 13.498 23.2943 13.498C23.3036 13.498 23.3127 13.498 23.3218 13.498C23.3309 13.498 23.3399 13.498 23.3488 13.498C23.3577 13.498 23.3666 13.498 23.3753 13.498C23.3841 13.498 23.3927 13.498 23.4013 13.498C23.4099 13.498 23.4184 13.498 23.4268 13.498C23.4352 13.498 23.4435 13.498 23.4518 13.498C23.46 13.498 23.4682 13.498 23.4762 13.498C23.4843 13.498 23.4923 13.498 23.5001 13.498C23.508 13.498 23.5158 13.498 23.5236 13.498C23.5313 13.498 23.5389 13.498 23.5464 13.498C23.554 13.498 23.5614 13.498 23.5688 13.498C23.5762 13.498 23.5834 13.498 23.5906 13.498C23.5978 13.498 23.6049 13.498 23.6119 13.498C23.6189 13.498 23.6259 13.498 23.6327 13.498C23.6395 13.498 23.6463 13.498 23.6529 13.498C23.6596 13.498 23.6661 13.498 23.6726 13.498C23.6791 13.498 23.6854 13.498 23.6917 13.498C23.698 13.498 23.7042 13.498 23.7103 13.498C23.7164 13.498 23.7224 13.498 23.7284 13.498C23.7343 13.498 23.7401 13.498 23.7459 13.498C23.7516 13.498 23.7572 13.498 23.7628 13.498C23.7683 13.498 23.7738 13.498 23.7792 13.498C23.7845 13.498 23.7898 13.498 23.795 13.498C23.8002 13.498 23.8053 13.498 23.8102 13.498C23.8152 13.498 23.8201 13.498 23.8249 13.498C23.8297 13.498 23.8345 13.498 23.8391 13.498C23.8437 13.498 23.8482 13.498 23.8526 13.498C23.857 13.498 23.8614 13.498 23.8656 13.498C23.8698 13.498 23.874 13.498 23.878 13.498C23.882 13.498 23.886 13.498 23.8898 13.498C23.8937 13.498 23.8974 13.498 23.9011 13.498C23.9047 13.498 23.9083 13.498 23.9117 13.498C23.9152 13.498 23.9186 13.498 23.9218 13.498C23.9251 13.498 23.9282 13.498 23.9313 13.498C23.9344 13.498 23.9373 13.498 23.9402 13.498C23.9431 13.498 23.9458 13.498 23.9485 13.498C23.9512 13.498 23.9537 13.498 23.9562 13.498C23.9587 13.498 23.961 13.498 23.9633 13.498C23.9656 13.498 23.9677 13.498 23.9698 13.498C23.9718 13.498 23.9738 13.498 23.9757 13.498C23.9775 13.498 23.9793 13.498 23.981 13.498C23.9826 13.498 23.9842 13.498 23.9856 13.498C23.9871 13.498 23.9884 13.498 23.9897 13.498C23.9909 13.498 23.9921 13.498 23.9931 13.498C23.9942 13.498 23.9951 13.498 23.9959 13.498C23.9968 13.498 23.9975 13.498 23.9981 13.498C23.9988 13.498 23.9993 13.498 23.9997 13.498C24.0001 13.498 24.0005 13.498 24.0007 13.498C24.0009 13.498 24.001 13.498 24.001 11.998Z" fill="white"/>
</svg>
