<svg width="136" height="13" viewBox="0 0 136 13" fill="none" xmlns="http://www.w3.org/2000/svg">
<path d="M2.22 10L0.42 2.68H1.6725L3.1125 9.115H3.255L4.755 2.875H6.4725L7.9725 9.115H8.1075L9.5625 2.68H10.8075L9.0075 10H7.1475L5.91 4.795L5.67 3.7525H5.5575L5.325 4.795L4.0875 10H2.22ZM15.3656 10.1875C14.3156 10.1875 13.5181 9.905 12.9731 9.34C12.4331 8.77 12.1631 7.9525 12.1631 6.8875V5.77C12.1631 4.71 12.4356 3.8975 12.9806 3.3325C13.5256 2.7675 14.3206 2.485 15.3656 2.485C16.4156 2.485 17.2106 2.7675 17.7506 3.3325C18.2956 3.8975 18.5681 4.71 18.5681 5.77V6.8875C18.5681 7.9525 18.2956 8.77 17.7506 9.34C17.2106 9.905 16.4156 10.1875 15.3656 10.1875ZM15.3656 9.1975C16.0156 9.1975 16.5081 9.005 16.8431 8.62C17.1831 8.235 17.3531 7.68 17.3531 6.955V5.7025C17.3531 4.9825 17.1831 4.4325 16.8431 4.0525C16.5081 3.6675 16.0156 3.475 15.3656 3.475C14.7206 3.475 14.2281 3.6675 13.8881 4.0525C13.5481 4.4325 13.3781 4.9825 13.3781 5.7025V6.955C13.3781 7.68 13.5481 8.235 13.8881 8.62C14.2281 9.005 14.7206 9.1975 15.3656 9.1975ZM25.5961 10V5.4475C25.5961 5.0525 25.5411 4.7125 25.4311 4.4275C25.3261 4.1425 25.1511 3.9225 24.9061 3.7675C24.6661 3.6075 24.3361 3.5275 23.9161 3.5275C23.5311 3.5275 23.1961 3.6 22.9111 3.745C22.6311 3.89 22.4036 4.0875 22.2286 4.3375C22.0536 4.5825 21.9311 4.8625 21.8611 5.1775L21.6436 4.315H21.9061C21.9861 3.985 22.1261 3.685 22.3261 3.415C22.5261 3.14 22.7936 2.9225 23.1286 2.7625C23.4686 2.5975 23.8836 2.515 24.3736 2.515C24.9536 2.515 25.4211 2.625 25.7761 2.845C26.1361 3.065 26.3986 3.3825 26.5636 3.7975C26.7286 4.2075 26.8111 4.7125 26.8111 5.3125V10H25.5961ZM20.6986 10V2.68H21.9136L21.8611 4.435L21.9136 4.5025V10H20.6986ZM35.8848 10.1575C35.4348 10.1575 35.0423 10.0825 34.7073 9.9325C34.3773 9.7825 34.1098 9.5675 33.9048 9.2875C33.6998 9.0075 33.5623 8.6825 33.4923 8.3125H33.0873L33.4548 7.1725C33.4798 7.6125 33.5823 7.98 33.7623 8.275C33.9473 8.565 34.1923 8.7825 34.4973 8.9275C34.8023 9.0725 35.1473 9.145 35.5323 9.145C36.1423 9.145 36.6073 8.965 36.9273 8.605C37.2523 8.245 37.4148 7.71 37.4148 7V5.6275C37.4148 4.9325 37.2523 4.405 36.9273 4.045C36.6023 3.685 36.1298 3.505 35.5098 3.505C35.1398 3.505 34.8123 3.5775 34.5273 3.7225C34.2423 3.8675 34.0048 4.065 33.8148 4.315C33.6298 4.565 33.5023 4.85 33.4323 5.17L33.1548 4.3225H33.4998C33.5748 3.9875 33.7073 3.685 33.8973 3.415C34.0923 3.14 34.3573 2.9225 34.6923 2.7625C35.0273 2.5975 35.4423 2.515 35.9373 2.515C36.8173 2.515 37.4873 2.79 37.9473 3.34C38.4073 3.885 38.6373 4.6775 38.6373 5.7175V6.9325C38.6373 7.9825 38.4023 8.7825 37.9323 9.3325C37.4673 9.8825 36.7848 10.1575 35.8848 10.1575ZM32.2773 10V0.0624996H33.4848V2.4475L33.4473 4.5475L33.4548 4.78V7.84L33.4398 8.23L33.4923 10H32.2773ZM43.8274 8.8675L43.1899 9.145L45.3799 2.68H46.6324L43.1899 12.58H41.9599L43.1149 9.235L43.6474 9.7H42.2674L39.8749 2.68H41.1349L43.1299 8.8675H43.8274ZM57.6627 8.95V10H51.1827V9.0175L56.1702 1.45H51.2277V0.414999H57.6102V1.3825L52.6227 8.95H57.6627ZM63.9227 10L63.9752 8.2225L63.9302 8.035V5.7025L63.9377 5.275C63.9377 4.68 63.7852 4.24 63.4802 3.955C63.1802 3.67 62.7027 3.5275 62.0477 3.5275C61.5227 3.5275 61.0402 3.6025 60.6002 3.7525C60.1652 3.9025 59.7777 4.0775 59.4377 4.2775L59.5502 3.2425C59.7402 3.1275 59.9652 3.015 60.2252 2.905C60.4902 2.79 60.7902 2.695 61.1252 2.62C61.4652 2.545 61.8377 2.5075 62.2427 2.5075C62.7677 2.5075 63.2127 2.5725 63.5777 2.7025C63.9477 2.8275 64.2452 3.01 64.4702 3.25C64.7002 3.49 64.8677 3.78 64.9727 4.12C65.0777 4.46 65.1302 4.84 65.1302 5.26V10H63.9227ZM61.4027 10.1575C60.6777 10.1575 60.1202 9.9825 59.7302 9.6325C59.3452 9.2775 59.1527 8.7725 59.1527 8.1175V7.9C59.1527 7.225 59.3602 6.7225 59.7752 6.3925C60.1952 6.0575 60.8602 5.825 61.7702 5.695L64.0877 5.365L64.1552 6.25L61.9202 6.5725C61.3602 6.6525 60.9602 6.79 60.7202 6.985C60.4802 7.175 60.3602 7.4575 60.3602 7.8325V7.9525C60.3602 8.3375 60.4777 8.6325 60.7127 8.8375C60.9527 9.0425 61.3102 9.145 61.7852 9.145C62.2052 9.145 62.5652 9.0725 62.8652 8.9275C63.1652 8.7825 63.4077 8.5875 63.5927 8.3425C63.7777 8.0975 63.9027 7.825 63.9677 7.525L64.1552 8.35H63.9227C63.8527 8.67 63.7202 8.9675 63.5252 9.2425C63.3352 9.5175 63.0677 9.74 62.7227 9.91C62.3777 10.075 61.9377 10.1575 61.4027 10.1575ZM69.8573 10.1575C68.9773 10.1575 68.3073 9.885 67.8473 9.34C67.3873 8.795 67.1573 8 67.1573 6.955V5.7475C67.1573 4.6975 67.3898 3.8975 67.8548 3.3475C68.3248 2.7925 69.0098 2.515 69.9098 2.515C70.3598 2.515 70.7498 2.5925 71.0798 2.7475C71.4148 2.8975 71.6848 3.11 71.8898 3.385C72.0998 3.66 72.2373 3.985 72.3023 4.36H72.7073L72.3323 5.4775C72.3173 5.0375 72.2173 4.6725 72.0323 4.3825C71.8473 4.0875 71.6023 3.8675 71.2973 3.7225C70.9973 3.5775 70.6523 3.505 70.2623 3.505C69.6523 3.505 69.1848 3.685 68.8598 4.045C68.5348 4.405 68.3723 4.94 68.3723 5.65V7.03C68.3723 7.72 68.5348 8.245 68.8598 8.605C69.1898 8.965 69.6623 9.145 70.2773 9.145C70.6523 9.145 70.9823 9.075 71.2673 8.935C71.5523 8.79 71.7873 8.5925 71.9723 8.3425C72.1623 8.0875 72.2923 7.8 72.3623 7.48L72.6398 8.35H72.2948C72.2198 8.68 72.0848 8.9825 71.8898 9.2575C71.6948 9.5325 71.4298 9.7525 71.0948 9.9175C70.7648 10.0775 70.3523 10.1575 69.8573 10.1575ZM72.3098 12.58V10.2025L72.3473 8.1175L72.3323 7.8775V4.8175L72.3548 4.4425L72.3023 2.68H73.5173V12.58H72.3098ZM78.364 10.1575C77.484 10.1575 76.814 9.885 76.354 9.34C75.894 8.795 75.664 8 75.664 6.955V5.7475C75.664 4.6975 75.8965 3.8975 76.3615 3.3475C76.8315 2.7925 77.5165 2.515 78.4165 2.515C78.8665 2.515 79.2565 2.5925 79.5865 2.7475C79.9215 2.8975 80.1915 3.11 80.3965 3.385C80.6065 3.66 80.744 3.985 80.809 4.36H81.214L80.839 5.4775C80.824 5.0375 80.724 4.6725 80.539 4.3825C80.354 4.0875 80.109 3.8675 79.804 3.7225C79.504 3.5775 79.159 3.505 78.769 3.505C78.159 3.505 77.6915 3.685 77.3665 4.045C77.0415 4.405 76.879 4.94 76.879 5.65V7.03C76.879 7.72 77.0415 8.245 77.3665 8.605C77.6965 8.965 78.169 9.145 78.784 9.145C79.159 9.145 79.489 9.075 79.774 8.935C80.059 8.79 80.294 8.5925 80.479 8.3425C80.669 8.0875 80.799 7.8 80.869 7.48L81.1465 8.35H80.8015C80.7265 8.68 80.5915 8.9825 80.3965 9.2575C80.2015 9.5325 79.9365 9.7525 79.6015 9.9175C79.2715 10.0775 78.859 10.1575 78.364 10.1575ZM80.8165 12.58V10.2025L80.854 8.1175L80.839 7.8775V4.8175L80.8615 4.4425L80.809 2.68H82.024V12.58H80.8165ZM89.2106 10L86.3156 6.5875H85.5431V5.6425H86.3156L89.0906 2.68H90.5306L87.2081 6.2125V5.92L90.6656 10H89.2106ZM84.4556 10V0.0624996H85.6631V10H84.4556ZM94.0567 10V1.69H93.9592L91.7392 3.01L91.7767 1.795L94.0642 0.414999H95.3017V10H94.0567ZM101.023 10.195C100.413 10.195 99.8882 10.1325 99.4482 10.0075C99.0132 9.8875 98.6557 9.7125 98.3757 9.4825C98.1007 9.2475 97.8957 8.9675 97.7607 8.6425C97.6307 8.3175 97.5657 7.955 97.5657 7.555V7.3525C97.5657 6.9025 97.6432 6.5175 97.7982 6.1975C97.9532 5.8775 98.1782 5.62 98.4732 5.425C98.7682 5.225 99.1157 5.085 99.5157 5.005V4.96C99.1207 4.9 98.7857 4.78 98.5107 4.6C98.2357 4.42 98.0257 4.185 97.8807 3.895C97.7407 3.605 97.6707 3.2675 97.6707 2.8825V2.68C97.6707 1.92 97.9432 1.3225 98.4882 0.8875C99.0332 0.447499 99.8782 0.227499 101.023 0.227499C102.178 0.227499 103.028 0.447499 103.573 0.8875C104.118 1.3225 104.391 1.92 104.391 2.68V2.8825C104.391 3.2675 104.318 3.605 104.173 3.895C104.033 4.185 103.826 4.42 103.551 4.6C103.276 4.78 102.941 4.9 102.546 4.96V5.005C102.951 5.09 103.298 5.2325 103.588 5.4325C103.878 5.6275 104.101 5.885 104.256 6.205C104.416 6.52 104.496 6.9025 104.496 7.3525V7.555C104.496 7.95 104.431 8.31 104.301 8.635C104.176 8.955 103.973 9.2325 103.693 9.4675C103.418 9.6975 103.061 9.875 102.621 10C102.181 10.13 101.648 10.195 101.023 10.195ZM101.038 9.1525C101.798 9.1525 102.353 8.9975 102.703 8.6875C103.058 8.3725 103.236 7.9575 103.236 7.4425V7.2475C103.236 6.7425 103.048 6.34 102.673 6.04C102.298 5.735 101.738 5.5525 100.993 5.4925C100.278 5.5575 99.7357 5.7425 99.3657 6.0475C99.0007 6.3475 98.8182 6.7475 98.8182 7.2475V7.4425C98.8182 7.9575 98.9982 8.3725 99.3582 8.6875C99.7182 8.9975 100.278 9.1525 101.038 9.1525ZM101.053 4.6075C101.683 4.5825 102.191 4.4325 102.576 4.1575C102.961 3.8775 103.153 3.475 103.153 2.95V2.8075C103.153 2.3275 102.981 1.95 102.636 1.675C102.296 1.395 101.758 1.255 101.023 1.255C100.298 1.255 99.7632 1.395 99.4182 1.675C99.0732 1.95 98.9007 2.3275 98.9007 2.8075V2.95C98.9007 3.3 98.9882 3.595 99.1632 3.835C99.3432 4.075 99.5932 4.26 99.9132 4.39C100.233 4.515 100.613 4.5875 101.053 4.6075ZM107.096 10L110.666 1.4725H105.956V0.414999H111.971V1.495L108.454 10H107.096ZM117.034 10V3.4075L117.071 1.285H116.869L113.554 6.9925V7.5625L113.074 7.0975H119.486V8.1475H112.316V6.9025L116.126 0.414999H118.219V10H117.034ZM120.738 10V8.815L123.13 6.4675C123.58 6.0225 123.963 5.6225 124.278 5.2675C124.598 4.9125 124.843 4.565 125.013 4.225C125.183 3.885 125.268 3.5225 125.268 3.1375V3.0625C125.268 2.6975 125.198 2.385 125.058 2.125C124.918 1.865 124.705 1.6675 124.42 1.5325C124.135 1.3975 123.768 1.33 123.318 1.33C122.818 1.33 122.353 1.41 121.923 1.57C121.493 1.73 121.11 1.915 120.775 2.125L120.895 1C121.085 0.879999 121.31 0.762499 121.57 0.647499C121.83 0.532499 122.125 0.437499 122.455 0.362499C122.785 0.287499 123.153 0.249999 123.558 0.249999C124.548 0.249999 125.29 0.479999 125.785 0.94C126.28 1.4 126.528 2.0575 126.528 2.9125V3.0175C126.528 3.5225 126.438 3.98 126.258 4.39C126.078 4.8 125.815 5.21 125.47 5.62C125.125 6.025 124.71 6.4675 124.225 6.9475L122.275 8.875V9.1675L121.765 8.9425H126.678V10H120.738ZM131.866 10.18C130.726 10.18 129.866 9.86 129.286 9.22C128.711 8.58 128.423 7.6575 128.423 6.4525V3.9625C128.423 2.7575 128.711 1.835 129.286 1.195C129.861 0.555 130.721 0.235 131.866 0.235C133.006 0.235 133.863 0.555 134.438 1.195C135.018 1.835 135.308 2.7575 135.308 3.9625V6.4525C135.308 7.6575 135.018 8.58 134.438 9.22C133.863 9.86 133.006 10.18 131.866 10.18ZM131.866 9.1375C132.606 9.1375 133.153 8.9125 133.508 8.4625C133.868 8.0075 134.048 7.355 134.048 6.505V3.9175C134.048 3.0625 133.868 2.41 133.508 1.96C133.153 1.505 132.606 1.2775 131.866 1.2775C131.126 1.2775 130.576 1.505 130.216 1.96C129.861 2.41 129.683 3.0625 129.683 3.9175V6.505C129.683 7.355 129.861 8.0075 130.216 8.4625C130.576 8.9125 131.126 9.1375 131.866 9.1375Z" fill="white"/>
</svg>
